<svg width="24" height="24" viewBox="0 0 24 24" fill="none" xmlns="http://www.w3.org/2000/svg">
<path d="M17.65 6.35C16.2 4.9 14.21 4 12 4C9.87829 4 7.84346 4.84285 6.34317 6.34314C4.84288 7.84343 4.00003 9.87826 4.00003 12C4.00003 14.1217 4.84288 16.1566 6.34317 17.6568C7.84346 19.1571 9.87829 20 12 20C15.73 20 18.84 17.45 19.73 14H17.65C16.83 16.33 14.61 18 12 18C10.4087 18 8.8826 17.3679 7.75739 16.2426C6.63217 15.1174 6.00003 13.5913 6.00003 12C6.00003 10.4087 6.63217 8.88257 7.75739 7.75735C8.8826 6.63214 10.4087 6 12 6C13.66 6 15.14 6.69 16.22 7.78L13 11H20V4L17.65 6.35Z" fill="white"/>
</svg>
